<svg version="1.1" id="Layer_1" xmlns="http://www.w3.org/2000/svg" x="0" y="0" viewBox="0 0 149.4 82.4" style="enable-background:new 0 0 149.4 82.4" xml:space="preserve"><style>.st0{fill:#fff}.st2{fill:#d7ff61}</style><path class="st0" d="M-.3-4.6h10.4v-50.7H-.3v50.7z" transform="translate(0 55.313)"/><path class="st0" d="M94.2 21.5c1.2-.9 2.1-2.2 2.4-3.7l-1.2-1.3.7 5.9h5.3V10H90.8v4.8h3.8c0 .4-.1.7-.2 1-.2.3-.4.5-.7.7-.3.2-.6.3-1 .4-.4.1-.8.1-1.3.1-.8 0-1.7-.2-2.4-.6-.7-.4-1.2-1.1-1.4-1.8-.3-1.1-.5-2.2-.5-3.4 0-1 .1-2.1.4-3.1.2-.7.6-1.4 1.2-1.8.6-.4 1.4-.6 2.1-.6.7 0 1.4.2 2 .6.6.6 1 1.4 1.1 2.2l7.5-2.6c-.7-1.9-2.1-3.6-3.9-4.6C95.4.2 93.1-.2 90.7-.1c-2.2-.1-4.4.4-6.4 1.4-1.7.9-3.1 2.2-4.1 3.9-1 1.9-1.5 4-1.4 6.2-.1 2.2.4 4.3 1.3 6.3.8 1.6 2.1 2.9 3.7 3.8 1.6.9 3.4 1.3 5.3 1.3 1.9.1 3.6-.4 5.1-1.3M68.2.3v8.2l.1 4.6h-.1L67 10.4 61.5.3h-8.7v22.1h7v-8.2l-.1-4.6h.1l1.2 2.7 5.5 10.1h8.7V.3h-7zM37.1 5.7l1.9 7.7h-3.8l1.9-7.7zM42 .3h-9.7l-7.4 22.1h8l1.1-4.2h6.2l1 4.2h8.2L42 .3zM7.4 5.7H11c1.4 0 2.1.5 2.1 1.6s-.7 1.6-2.1 1.6H7.4V5.7zm0 8.4h4.1c.6 0 1.1.1 1.6.4.4.3.6.7.5 1.2 0 .5-.2.9-.5 1.2-.5.3-1 .5-1.6.4H7.4v-3.2zm6.2 8.4c2.8 0 4.9-.5 6.2-1.5 1.4-1 2.1-2.7 2-4.4 0-1.3-.5-2.6-1.4-3.6-1.2-1.1-2.7-1.7-4.4-1.7 1.5-.1 2.8-.7 3.9-1.7.8-.9 1.3-2.1 1.2-3.3.1-1.7-.7-3.4-2.1-4.4C17.6.9 15.5.4 12.6.4H-.3v22.1h13.9z" transform="translate(20.787 28.282)"/><path class="st0" d="M-.3 22.7V0h13.4c3 0 5.2.5 6.6 1.5 1.5 1 2.3 2.7 2.2 4.5 0 1.3-.4 2.5-1.3 3.4-1.1 1.1-2.5 1.7-4 1.8 1.6 0 3.2.7 4.5 1.8 1 1 1.5 2.3 1.4 3.6.1 1.8-.7 3.4-2.1 4.5-1.4 1-3.5 1.5-6.4 1.5l-14.3.1zM7.6 8.8h3.7c1.4 0 2.1-.6 2.1-1.7s-.7-1.7-2.1-1.7H7.6v3.4zm0 8.7h4.2c.6 0 1.2-.1 1.6-.4.4-.3.6-.8.6-1.3s-.2-.9-.6-1.2c-.5-.3-1.1-.5-1.6-.4H7.6v3.3z" transform="translate(20.753 .103)"/><path class="st0" d="M53.3-32.5h9.6v-22.7h-9.6v22.7z" transform="translate(0 55.313)"/><path class="st0" d="M-.3 0v22.7H8v-7.8h10.7V9.1H7.9V5.9h12.8V0h-21z" transform="translate(73.999 .103)"/><path class="st0" d="M-.3 0v22.7H8v-7.8h10.7V9.1H7.9V5.9h12.8V0h-21z" transform="translate(101.596 .103)"/><path d="M-.3 26.6h10.4v-7.4H-.3v7.4z" style="fill:#fd019a" transform="translate(0 55.313)"/><path class="st2" d="M-.3 13.7h10.4V1.1H-.3v12.6z" transform="translate(0 55.313)"/><path class="st2" d="M46.7 7.4c.7.5 1.2 1.2 1.4 2.1.3 1.2.5 2.4.4 3.6 0 1.2-.1 2.4-.4 3.6-.2.8-.7 1.6-1.4 2.1s-1.6.7-2.5.7c-.9 0-1.7-.2-2.5-.7-.7-.5-1.2-1.3-1.4-2.1-.3-1.2-.5-2.4-.5-3.6 0-1.2.1-2.4.5-3.6.2-.8.7-1.5 1.4-2.1.7-.5 1.6-.7 2.5-.7.9 0 1.7.3 2.5.7M36.3 1.5c-2.1 1-3.9 2.5-5.2 4.5-1.2 2.2-1.9 4.6-1.8 7.1-.1 2.5.5 4.9 1.8 7.1 1.2 2 3 3.5 5.1 4.5 2.5 1.1 5.2 1.6 7.9 1.5 2.7.1 5.5-.5 8-1.5 2.1-.9 3.9-2.5 5.1-4.5 1.2-2.2 1.8-4.6 1.8-7.1.1-2.5-.5-4.9-1.8-7.1-1.2-2-3-3.5-5.1-4.5-2.5-1.1-5.2-1.6-8-1.5-2.6-.1-5.3.5-7.8 1.5M8.9 12V6.8H12c.8 0 1.7.2 2.4.6.6.5.9 1.2.9 2 .1.8-.3 1.5-.9 2-.7.5-1.5.7-2.4.6H8.9zM-.3.4v25.5H9v-7.5h4.7c2.1.1 4.1-.3 6-1 1.5-.6 2.8-1.7 3.7-3 .9-1.5 1.3-3.2 1.3-4.9.1-1.7-.4-3.4-1.3-4.9-.9-1.4-2.2-2.4-3.7-3-1.9-.7-4-1.1-6-1h-14z" transform="translate(20.788 56.151)"/><g><path class="st2" d="m29.4 0-2.8 15.1L22.9 0h-7.5L12 15.2 9.1 0H-.3l7 25.4h9.6l3-14.5 2.9 14.5h9.2l7-25.4h-9z" transform="translate(83.709 56.512)"/></g><g><path class="st0" d="M136.6 0v2.4h-2.9v6.8h-3.2V2.4h-2.9V0h9zM149.3 0v9.1h-2.8V2.9l-1.8 6.2h-2.6l-1.7-6.2h-.1V9.2h-2.8V0h4.5l1.1 4.1.4 1.7.4-1.7L145 0h4.3z"/></g></svg>