<svg width="23" height="26" viewBox="0 0 23 26" fill="none" xmlns="http://www.w3.org/2000/svg">
<g clip-path="url(#clip0_2453_1712)">
<path d="M21.125 1.625H1.61992C0.726172 1.625 0 2.36133 0 3.26523V22.7348C0 23.6387 0.726172 24.375 1.61992 24.375H21.125C22.0187 24.375 22.75 23.6387 22.75 22.7348V3.26523C22.75 2.36133 22.0187 1.625 21.125 1.625ZM6.87578 21.125H3.50391V10.268H6.88086V21.125H6.87578ZM5.18984 8.78516C4.1082 8.78516 3.23477 7.90664 3.23477 6.83008C3.23477 5.75352 4.1082 4.875 5.18984 4.875C6.26641 4.875 7.14492 5.75352 7.14492 6.83008C7.14492 7.91172 6.27148 8.78516 5.18984 8.78516ZM19.5152 21.125H16.1434V15.8438C16.1434 14.5844 16.118 12.9645 14.3914 12.9645C12.6344 12.9645 12.3652 14.3355 12.3652 15.7523V21.125H8.99336V10.268H12.2281V11.7508H12.2738C12.7258 10.8977 13.8277 9.99883 15.468 9.99883C18.8805 9.99883 19.5152 12.2484 19.5152 15.1734V21.125Z" fill="white"/>
</g>
<defs>
<clipPath id="clip0_2453_1712">
<rect width="22.75" height="26" fill="white"/>
</clipPath>
</defs>
</svg>
