<svg width="188" height="56" viewBox="0 0 188 56" fill="none" xmlns="http://www.w3.org/2000/svg">
<g clip-path="url(#clip0_2274_1357)">
<path d="M18.9424 20.4378C9.94186 20.4378 6.47484 27.9076 6.47484 35.3077C6.47484 42.7079 10.1026 50.2705 19.3327 50.2705C28.5628 50.2705 31.5706 42.7079 31.5706 35.0062C31.5706 27.3044 27.6214 20.4378 18.9424 20.4378ZM0 0.603516H6.70444V20.9714H6.86517C9.06937 16.6333 14.2814 14.7079 19.8837 14.7079C32.4431 14.7079 38.6654 24.3119 38.6654 35.4701C38.6654 46.6284 32.512 56.0004 20.0215 56.0004C7.53102 56.0004 9.82706 54.4693 6.84221 49.8065H6.68148V55.0724H0V0.603516Z" fill="white"/>
<path d="M71.843 34.7279C69.2485 36.5605 64.1972 36.6301 59.674 37.3957C55.2426 38.1612 51.4542 39.6923 51.4542 44.4943C51.4542 49.2962 55.2426 50.2938 59.3525 50.2938C68.1923 50.2938 71.8201 44.9582 71.8201 41.3625V34.7279H71.843ZM82.7492 54.9334C81.5553 55.6293 80.0628 56.0005 77.9275 56.0005C74.4605 56.0005 72.2333 54.1678 72.2333 49.8994C68.5138 54.0982 63.5543 56.0005 57.8601 56.0005C52.1659 56.0005 44.3594 52.7991 44.3594 44.935C44.3594 37.0709 51.2245 34.1015 58.1816 32.8025C65.5978 31.4338 71.9119 31.8745 71.9119 27.003C71.9119 22.1314 67.0902 20.4379 62.8425 20.4379C58.5948 20.4379 52.9695 22.1082 52.6481 27.9077H45.9436C46.334 18.1413 54.1635 14.708 63.2329 14.708C72.3022 14.708 78.5475 16.3087 78.5475 25.5415V45.8397C78.5475 48.9019 78.5475 50.2706 80.6828 50.2706C82.8181 50.2706 81.8767 50.201 82.7263 49.8994V54.9334H82.7492Z" fill="white"/>
<path d="M91.7499 21.3654H84.8848V15.6355H91.7499V9.76636C91.7499 3.36371 95.6991 0 103.046 0C110.394 0 106.123 0.23198 107.386 0.603148V6.24027C106.192 5.8691 104.768 5.70671 103.598 5.70671C100.36 5.70671 98.4773 6.70423 98.4773 10.1375V15.6355H106.376V21.3654H98.4773V55.0953H91.7729V21.3654H91.7499Z" fill="#E63329"/>
<path d="M116.455 42.6609C116.685 48.4604 121.897 50.293 127.431 50.293C132.964 50.293 137.303 49.3883 137.303 44.4239C137.303 39.4595 130.668 38.5548 123.963 37.0934C117.328 35.6319 110.623 33.4977 110.623 25.9583C110.623 18.419 118.751 14.7305 125.869 14.7305C132.987 14.7305 142.056 17.4678 142.607 27.095H135.903C135.421 22.061 130.852 20.4604 126.42 20.4604C121.989 20.4604 117.741 21.5275 117.741 25.4943C117.741 29.4612 124.859 30.8995 131.081 32.361C137.786 33.8224 144.421 35.9566 144.421 43.5888C144.421 51.2209 135.329 56.0229 127.04 56.0229C118.751 56.0229 110.141 52.4272 109.751 42.6609H116.455Z" fill="white"/>
<path d="M177.094 34.7279C174.499 36.5605 169.425 36.6301 164.925 37.3957C160.494 38.1612 156.705 39.6923 156.705 44.4943C156.705 49.2962 160.494 50.2938 164.604 50.2938C173.443 50.2938 177.071 44.9582 177.071 41.3625V34.7279H177.094ZM188 54.9334C186.806 55.6293 185.314 56.0005 183.179 56.0005C179.711 56.0005 177.484 54.1678 177.484 49.8994C173.765 54.0982 168.805 56.0005 163.111 56.0005C157.417 56.0005 149.61 52.7991 149.61 44.935C149.61 37.0709 156.476 34.1015 163.433 32.8025C170.849 31.4338 177.163 31.8745 177.163 27.003C177.163 22.1314 172.341 20.4379 168.093 20.4379C163.846 20.4379 158.221 22.1082 157.899 27.9077H151.195C151.585 18.1413 159.391 14.708 168.484 14.708C177.576 14.708 183.798 16.3087 183.798 25.5415V45.8397C183.798 48.9019 183.798 50.2706 185.934 50.2706C188.069 50.2706 187.128 50.201 187.977 49.8994V54.9334H188Z" fill="white"/>
</g>
<defs>
<clipPath id="clip0_2274_1357">
<rect width="188" height="56" fill="white"/>
</clipPath>
</defs>
</svg>
