<?xml version="1.0" encoding="UTF-8"?>
<svg id="Layer_1" data-name="Layer 1" xmlns="http://www.w3.org/2000/svg" xmlns:xlink="http://www.w3.org/1999/xlink" version="1.1" viewBox="0 0 74 21">
  <defs>
    <style>
      .cls-1 {
        clip-path: url(#clippath);
      }

      .cls-2 {
        fill: none;
      }

      .cls-2, .cls-3 {
        stroke-width: 0px;
      }

      .cls-3 {
        fill: #fff;
      }
    </style>
    <clipPath id="clippath">
      <rect class="cls-2" width="74" height="21"/>
    </clipPath>
  </defs>
  <g class="cls-1">
    <g>
      <path class="cls-3" d="M7.5,7.7c-3.5,0-4.9,2.8-4.9,5.6s1.4,5.6,5.1,5.6,4.8-2.8,4.8-5.7-1.6-5.5-5-5.5ZM0,.2h2.6v7.6h0c.9-1.6,2.9-2.3,5.1-2.3,4.9,0,7.4,3.6,7.4,7.8s-2.4,7.7-7.3,7.7-4-.6-5.2-2.3h0v2H0V.2Z"/>
      <path class="cls-3" d="M28.3,13c-1,.7-3,.7-4.8,1-1.7.3-3.2.9-3.2,2.7s1.5,2.2,3.1,2.2c3.5,0,4.9-2,4.9-3.3v-2.5h0ZM32.6,20.6c-.5.3-1.1.4-1.9.4-1.4,0-2.2-.7-2.2-2.3-1.5,1.6-3.4,2.3-5.7,2.3s-5.3-1.2-5.3-4.1,2.7-4.1,5.4-4.5c2.9-.5,5.4-.3,5.4-2.2s-1.9-2.5-3.6-2.5-3.9.6-4,2.8h-2.6c.2-3.7,3.2-4.9,6.8-4.9s6,.6,6,4.1v7.6c0,1.1,0,1.7.8,1.7s.5,0,.8-.1v1.9h0Z"/>
      <path class="cls-3" d="M36.1,8h-2.7v-2.1h2.7v-2.2c0-2.4,1.6-3.7,4.4-3.7s1.2,0,1.7.2v2.1c-.5-.1-1-.2-1.5-.2-1.3,0-2,.4-2,1.7v2.1h3.1v2.1h-3.1v12.6h-2.6v-12.6h0Z"/>
      <path class="cls-3" d="M45.8,16c0,2.2,2.1,2.9,4.3,2.9s3.9-.3,3.9-2.2-2.6-2.2-5.3-2.7c-2.6-.5-5.3-1.3-5.3-4.2s3.2-4.2,6-4.2,6.4,1,6.6,4.6h-2.6c-.2-1.9-2-2.5-3.7-2.5s-3.4.4-3.4,1.9,2.8,2,5.3,2.6c2.6.5,5.3,1.3,5.3,4.2s-3.6,4.7-6.8,4.7-6.7-1.3-6.8-5h2.6Z"/>
      <path class="cls-3" d="M69.7,13c-1,.7-3,.7-4.8,1-1.7.3-3.2.9-3.2,2.7s1.5,2.2,3.1,2.2c3.5,0,4.9-2,4.9-3.3v-2.5h0ZM74,20.6c-.5.3-1.1.4-1.9.4-1.4,0-2.2-.7-2.2-2.3-1.5,1.6-3.4,2.3-5.7,2.3s-5.3-1.2-5.3-4.1,2.7-4.1,5.4-4.5c2.9-.5,5.4-.3,5.4-2.2s-1.9-2.5-3.6-2.5-3.9.6-4,2.8h-2.6c.2-3.7,3.2-4.9,6.8-4.9s6,.6,6,4.1v7.6c0,1.1,0,1.7.8,1.7s.5,0,.8-.1v1.9h0Z"/>
    </g>
  </g>
</svg>