<svg width="187" height="69" viewBox="0 0 187 69" fill="none" xmlns="http://www.w3.org/2000/svg">
<g clip-path="url(#clip0_2453_319)">
<path d="M18.8347 34.2392C9.88536 34.2392 6.43804 41.5405 6.43804 48.7738C6.43804 56.0072 10.0452 63.3992 19.2228 63.3992C28.4004 63.3992 31.3912 56.0072 31.3912 48.4791C31.3912 40.951 27.4644 34.2392 18.8347 34.2392ZM0 14.8521H6.66634V34.7607H6.82615C9.01783 30.5205 14.2002 28.6384 19.7707 28.6384C32.2587 28.6384 38.4456 38.0259 38.4456 48.9326C38.4456 59.8392 32.3272 68.9999 19.9077 68.9999C7.48822 68.9999 9.77121 67.5034 6.80332 62.9457H6.64351V68.0929H0V14.8521Z" fill="#1E3A6F"/>
<path d="M71.4349 48.1843C68.8551 49.9756 63.8325 50.0436 59.335 50.7919C54.9288 51.5402 51.1619 53.0367 51.1619 57.7304C51.1619 62.4242 54.9288 63.3992 59.0154 63.3992C67.8049 63.3992 71.412 58.1839 71.412 54.6693V48.1843H71.4349ZM82.2791 67.9569C81.0919 68.6371 79.608 68.9999 77.4848 68.9999C74.0375 68.9999 71.823 67.2086 71.823 63.0364C68.1245 67.1406 63.1932 68.9999 57.5314 68.9999C51.8696 68.9999 44.1074 65.8708 44.1074 58.1839C44.1074 50.4971 50.9336 47.5947 57.851 46.3249C65.2251 44.9871 71.5033 45.4179 71.5033 40.6562C71.5033 35.8944 66.7091 34.2392 62.4855 34.2392C58.262 34.2392 52.6686 35.8717 52.349 41.5405H45.6827C46.0708 31.9943 53.8558 28.6384 62.8736 28.6384C71.8915 28.6384 78.1012 30.203 78.1012 39.2276V59.0683C78.1012 62.0614 78.1012 63.3992 80.2244 63.3992C82.3476 63.3992 81.4115 63.3312 82.2562 63.0364V67.9569H82.2791Z" fill="#1E3A6F"/>
<path d="M91.2285 35.1461H84.4023V29.5454H91.2285V23.8086C91.2285 17.5503 95.1552 14.2625 102.461 14.2625C109.766 14.2625 105.52 14.4892 106.776 14.852V20.362C105.589 19.9992 104.173 19.8405 103.009 19.8405C99.7897 19.8405 97.9177 20.8155 97.9177 24.1714V29.5454H105.771V35.1461H97.9177V68.1156H91.2513V35.1461H91.2285Z" fill="#9C231C"/>
<path d="M115.793 55.9618C116.022 61.6306 121.204 63.4219 126.706 63.4219C132.208 63.4219 136.523 62.5376 136.523 57.6851C136.523 52.8327 129.925 51.9483 123.259 50.5198C116.661 49.0913 109.994 47.0052 109.994 39.6358C109.994 32.2665 118.076 28.6611 125.154 28.6611C132.231 28.6611 141.249 31.3368 141.797 40.7469H135.13C134.651 35.8264 130.108 34.2619 125.701 34.2619C121.295 34.2619 117.072 35.3049 117.072 39.1823C117.072 43.0598 124.149 44.4656 130.336 45.8941C137.002 47.3226 143.6 49.4088 143.6 56.8688C143.6 64.3289 134.559 69.0226 126.318 69.0226C118.076 69.0226 109.515 65.508 109.127 55.9618H115.793Z" fill="#1E3A6F"/>
<path d="M176.087 48.1843C173.507 49.9756 168.462 50.0436 163.987 50.7919C159.581 51.5402 155.814 53.0367 155.814 57.7304C155.814 62.4242 159.581 63.3992 163.668 63.3992C172.457 63.3992 176.064 58.1839 176.064 54.6693V48.1843H176.087ZM186.931 67.9569C185.744 68.6371 184.26 68.9999 182.137 68.9999C178.69 68.9999 176.475 67.2086 176.475 63.0364C172.777 67.1406 167.846 68.9999 162.184 68.9999C156.522 68.9999 148.76 65.8708 148.76 58.1839C148.76 50.4971 155.586 47.5947 162.503 46.3249C169.877 44.9871 176.156 45.4179 176.156 40.6562C176.156 35.8944 171.361 34.2392 167.138 34.2392C162.914 34.2392 157.321 35.8717 157.001 41.5405H150.335C150.723 31.9943 158.485 28.6384 167.526 28.6384C176.567 28.6384 182.754 30.203 182.754 39.2276V59.0683C182.754 62.0614 182.754 63.3992 184.877 63.3992C187 63.3992 186.064 63.3312 186.909 63.0364V67.9569H186.931Z" fill="#1E3A6F"/>
<path d="M2.16884 6.64374C2.55695 6.64374 2.85374 6.55304 3.08204 6.39431C3.31034 6.23559 3.42449 5.91814 3.42449 5.48731C3.42449 5.05649 3.40166 5.07916 3.33317 4.94311C3.26468 4.80706 3.19619 4.67101 3.08204 4.58032C2.96789 4.48961 2.85374 4.42159 2.71676 4.39891C2.57978 4.35356 2.41997 4.35357 2.23733 4.35357H1.55244V6.64374H2.16884ZM2.00903 3.28784C2.4428 3.28784 2.76242 3.21982 2.96789 3.06109C3.17336 2.90237 3.26468 2.65294 3.26468 2.29014C3.26468 1.92734 3.17336 1.67792 2.99072 1.51919C2.80808 1.36047 2.51129 1.29244 2.12318 1.29244H1.55244V3.28784H2.00903ZM2.62544 0.158691C2.94506 0.158691 3.24185 0.181366 3.51581 0.249391C3.78977 0.317416 4.01807 0.430791 4.22354 0.566841C4.42901 0.725566 4.56599 0.906966 4.68014 1.15639C4.79429 1.40582 4.83995 1.72327 4.83995 2.08607C4.83995 2.44887 4.74863 2.85702 4.54316 3.15179C4.33769 3.44657 4.06373 3.65064 3.65279 3.76402C4.08656 3.83204 4.42901 4.01344 4.68014 4.33089C4.93127 4.64834 5.06825 5.05649 5.06825 5.55534C5.06825 6.05419 5.02259 6.14489 4.9541 6.41699C4.86278 6.68909 4.74863 6.91584 4.54316 7.11991C4.36052 7.32399 4.10939 7.48271 3.78977 7.59609C3.49298 7.70946 3.10487 7.77749 2.64827 7.77749H0V0.158691H2.62544Z" fill="#1E3A6F"/>
<path d="M7.44268 2.04084V2.81178C7.60249 2.53969 7.78513 2.31294 7.9906 2.15421C8.19607 1.99549 8.47003 1.90479 8.78965 1.90479C9.10927 1.90479 8.88097 1.90479 8.92663 1.90479C8.97229 1.90479 9.01795 1.90479 9.06361 1.90479V3.31063C8.97229 3.31063 8.9038 3.31063 8.83531 3.31063C8.76682 3.31063 8.6755 3.31063 8.60701 3.31063C8.47003 3.31063 8.35588 3.31063 8.2189 3.35598C8.08192 3.40133 7.96777 3.44668 7.85362 3.53738C7.73947 3.62808 7.64815 3.71878 7.60249 3.85483C7.534 3.99088 7.51117 4.14961 7.51117 4.33101V7.77761H6.00439V2.04084H7.44268Z" fill="#1E3A6F"/>
<path d="M9.67969 7.77761H11.1865V2.04084H9.67969V7.80029V7.77761ZM9.67969 1.31524H11.1865V0.0681152H9.67969V1.33791V1.31524Z" fill="#1E3A6F"/>
<path d="M14.063 0.385498V2.04077H14.9306V3.03847H14.063V6.14495C14.063 6.3717 14.0858 6.53042 14.1772 6.62112C14.2457 6.71182 14.3826 6.75717 14.6109 6.75717C14.8392 6.75717 14.7251 6.75717 14.7936 6.75717C14.8621 6.75717 14.9077 6.75717 14.9534 6.75717V7.77754C14.7936 7.77754 14.6338 7.77754 14.474 7.77754C14.3141 7.77754 14.1543 7.77754 13.9717 7.77754C13.6749 7.77754 13.4466 7.77754 13.264 7.70952C13.0813 7.66417 12.9444 7.59615 12.8302 7.48277C12.7389 7.3694 12.6704 7.21067 12.6247 7.0066C12.5791 6.80252 12.5791 6.57577 12.5791 6.281V2.99312H11.8257V1.99542H12.5791V0.385498H14.0858H14.063Z" fill="#1E3A6F"/>
<path d="M15.5015 7.77761H17.0082V2.04084H15.5015V7.80029V7.77761ZM15.5015 1.31524H17.0082V0.0681152H15.5015V1.33791V1.31524Z" fill="#1E3A6F"/>
<path d="M19.1545 6.0996C19.1545 6.34902 19.223 6.5531 19.3599 6.71182C19.4969 6.87055 19.6796 6.93857 19.9307 6.93857C20.1818 6.93857 20.3416 6.87055 20.4786 6.75717C20.6156 6.6438 20.6841 6.4624 20.6841 6.23565C20.6841 6.0089 20.6384 5.9182 20.5243 5.80482C20.4101 5.71412 20.296 5.62342 20.1362 5.57807L19.086 5.1926C18.675 5.05655 18.3554 4.85247 18.1499 4.58037C17.9445 4.33095 17.8303 3.99082 17.8303 3.58267C17.8303 3.17452 17.876 3.12917 17.9445 2.9251C18.013 2.72102 18.1499 2.53962 18.3326 2.3809C18.5152 2.22217 18.7207 2.1088 18.9947 1.99543C19.2686 1.90473 19.5882 1.85938 19.9763 1.85938C20.6612 1.85938 21.1635 1.99543 21.4831 2.2902C21.8027 2.58497 21.9625 2.97045 21.9625 3.49197V3.71872H20.6156C20.6156 3.42395 20.5699 3.1972 20.4786 3.06115C20.3873 2.9251 20.2046 2.85707 19.9535 2.85707C19.7024 2.85707 19.6111 2.90242 19.4513 3.0158C19.3143 3.12917 19.2458 3.26522 19.2458 3.49197C19.2458 3.71872 19.2914 3.76407 19.3828 3.87745C19.4741 3.99082 19.6567 4.08152 19.9079 4.17222L20.7982 4.467C21.2776 4.62572 21.5973 4.8298 21.8027 5.07922C22.0082 5.32865 22.0995 5.66877 22.0995 6.0996C22.0995 6.53042 22.0539 6.66647 21.9397 6.89322C21.8256 7.11997 21.6886 7.30137 21.4831 7.4601C21.3005 7.61882 21.0722 7.70952 20.7982 7.77755C20.5243 7.84557 20.2503 7.86825 19.9307 7.86825C19.6111 7.86825 19.1545 7.8229 18.8805 7.75487C18.6065 7.68685 18.3782 7.5508 18.2184 7.39207C18.0586 7.23335 17.9445 7.05195 17.876 6.8252C17.8075 6.59845 17.7847 6.34902 17.7847 6.07692V5.87285H19.1316V6.07692L19.1545 6.0996Z" fill="#1E3A6F"/>
<path d="M24.3825 0.158691V2.63027C24.6793 2.13142 25.1359 1.88199 25.798 1.88199C26.46 1.88199 26.6427 2.01804 26.8938 2.26747C27.1449 2.51689 27.2819 2.94772 27.2819 3.51459V7.77749H25.7751V3.80936C25.7751 3.51459 25.7295 3.31052 25.6153 3.17447C25.524 3.06109 25.3414 2.99307 25.1359 2.99307C24.6108 2.99307 24.3369 3.31052 24.3369 3.94542V7.75481H22.8301V0.158691H24.3369H24.3825Z" fill="#1E3A6F"/>
<path d="M33.8113 4.92044L33.0579 1.49652L32.3045 4.92044H33.8341H33.8113ZM34.0167 0.158691L36.0714 7.80016H34.4505L34.0852 6.19024H32.0077L31.6424 7.80016H30.0215L32.0762 0.158691H34.0167Z" fill="#1E3A6F"/>
<path d="M39.5416 7.11997C39.3818 7.41474 39.1763 7.61882 38.9252 7.73219C38.6741 7.84557 38.3773 7.9136 38.0577 7.9136C37.5782 7.9136 37.213 7.80022 36.9618 7.5508C36.7107 7.30137 36.5737 6.89322 36.5737 6.32635V2.04077H38.0805V6.0089C38.0805 6.30367 38.1262 6.50775 38.2403 6.6438C38.3316 6.75717 38.5143 6.8252 38.7197 6.8252C39.2448 6.8252 39.5188 6.50775 39.5188 5.87285V2.04077H41.0256V7.80022H39.5873V7.11997H39.5416Z" fill="#1E3A6F"/>
<path d="M43.8335 0.385498V2.04077H44.7011V3.03847H43.8335V6.14495C43.8335 6.3717 43.8564 6.53042 43.9477 6.62112C44.0162 6.71182 44.1531 6.75717 44.3814 6.75717C44.6097 6.75717 44.4956 6.75717 44.5641 6.75717C44.6326 6.75717 44.6782 6.75717 44.7239 6.75717V7.77754C44.5641 7.77754 44.4043 7.77754 44.2445 7.77754C44.0847 7.77754 43.9248 7.77754 43.7422 7.77754C43.4454 7.77754 43.2171 7.77754 43.0345 7.70952C42.8518 7.66417 42.7149 7.59615 42.6007 7.48277C42.5094 7.3694 42.4409 7.21067 42.3952 7.0066C42.3496 6.80252 42.3496 6.57577 42.3496 6.281V2.99312H41.5962V1.99542H42.3496V0.385498H43.8564H43.8335Z" fill="#1E3A6F"/>
<path d="M46.5501 5.71415C46.5501 5.96358 46.5958 6.16765 46.6643 6.34905C46.7099 6.53045 46.8012 6.6665 46.9154 6.7572C47.0295 6.8479 47.1665 6.91593 47.3492 6.91593C47.6459 6.91593 47.8742 6.7572 47.9884 6.43975C48.1025 6.1223 48.171 5.60078 48.171 4.89785C48.171 4.19493 48.1025 3.65073 47.9884 3.35595C47.8742 3.0385 47.6688 2.87978 47.3492 2.87978C47.0295 2.87978 47.0295 2.92513 46.9154 3.0385C46.8012 3.1292 46.7328 3.28793 46.6643 3.44665C46.6186 3.62805 46.5729 3.83213 46.5501 4.08155C46.5501 4.33098 46.5501 4.60308 46.5501 4.89785C46.5501 5.19263 46.5501 5.46473 46.5501 5.71415ZM45.1347 3.60538C45.2031 3.2199 45.3401 2.90245 45.5228 2.65303C45.7054 2.4036 45.9337 2.19953 46.2305 2.08615C46.5273 1.9501 46.8926 1.88208 47.3035 1.88208C47.7601 1.88208 48.1254 1.92743 48.4222 2.06348C48.719 2.17686 48.9473 2.38093 49.1299 2.63035C49.3125 2.87978 49.4267 3.19723 49.4952 3.5827C49.5637 3.96818 49.6093 4.399 49.6093 4.92053C49.6093 5.44205 49.5637 5.8502 49.4952 6.23568C49.4267 6.62115 49.2897 6.9386 49.1071 7.18803C48.9244 7.43745 48.6961 7.61885 48.3993 7.7549C48.1026 7.86828 47.7373 7.9363 47.3263 7.9363C46.8697 7.9363 46.5045 7.89095 46.2077 7.77758C45.9109 7.6642 45.6826 7.4828 45.4999 7.2107C45.3173 6.96128 45.2031 6.64383 45.1347 6.25835C45.0662 5.87288 45.0205 5.44205 45.0205 4.9432C45.0205 4.44435 45.0662 4.01353 45.1347 3.62805" fill="#1E3A6F"/>
<path d="M51.8696 2.0408V2.63035C52.0522 2.35825 52.2805 2.17686 52.5088 2.06348C52.7371 1.95011 53.0339 1.88208 53.3535 1.88208C53.6731 1.88208 53.9928 1.95011 54.2211 2.10883C54.4494 2.26755 54.6092 2.4943 54.7005 2.78908C54.8146 2.47163 54.9973 2.24488 55.2712 2.10883C55.5224 1.95011 55.842 1.88208 56.1844 1.88208C56.5269 1.88208 57.052 2.04081 57.2803 2.33558C57.5086 2.63035 57.6227 3.06118 57.6227 3.60538V7.77758H56.1159V3.7641C56.1159 3.51468 56.0703 3.33328 55.979 3.19723C55.8876 3.06118 55.7278 3.01583 55.5224 3.01583C55.3169 3.01583 55.0886 3.08385 54.9516 3.24258C54.8146 3.4013 54.7461 3.65073 54.7461 3.99085V7.77758H53.2394V3.7641C53.2394 3.51468 53.1937 3.33328 53.1024 3.19723C53.0111 3.06118 52.8513 3.01583 52.6458 3.01583C52.4403 3.01583 52.212 3.08385 52.075 3.24258C51.9381 3.4013 51.8696 3.65073 51.8696 3.99085V7.77758H50.3628V2.0408H51.8011H51.8696Z" fill="#1E3A6F"/>
<path d="M61.0927 5.10193C60.9786 5.14728 60.8644 5.19263 60.7731 5.2153C60.4763 5.28333 60.248 5.3967 60.111 5.53275C59.974 5.69148 59.9056 5.89555 59.9056 6.14498C59.9056 6.3944 59.9512 6.55313 60.0425 6.71185C60.1339 6.87058 60.2708 6.9386 60.4763 6.9386C60.6818 6.9386 60.6818 6.9386 60.7959 6.89325C60.9101 6.87058 61.0014 6.80255 61.0927 6.73453C61.184 6.6665 61.2525 6.5758 61.321 6.46243C61.3895 6.34905 61.4123 6.213 61.4123 6.05428V4.92053C61.321 4.98855 61.2069 5.05658 61.0927 5.10193ZM58.6727 3.65073C58.6727 3.3106 58.7184 3.0385 58.8326 2.81175C58.9467 2.585 59.0837 2.4036 59.2663 2.26755C59.449 2.1315 59.6773 2.01813 59.9284 1.97278C60.1795 1.90475 60.4535 1.88208 60.7274 1.88208C61.184 1.88208 61.5493 1.92743 61.8233 2.01813C62.0972 2.10883 62.3027 2.2222 62.4625 2.38093C62.6223 2.53965 62.7136 2.72105 62.7821 2.9478C62.8278 3.17455 62.8735 3.4013 62.8735 3.65073V6.6665C62.8735 6.9386 62.8735 7.14268 62.9191 7.3014C62.9419 7.46013 62.9876 7.61885 63.0561 7.77758H61.6178C61.5721 7.68688 61.5265 7.59618 61.5037 7.4828C61.4808 7.36943 61.458 7.27873 61.4352 7.18803C61.2525 7.4828 61.0699 7.68688 60.8416 7.77758C60.6133 7.86828 60.3165 7.91363 59.9512 7.91363C59.5859 7.91363 59.4718 7.86828 59.2892 7.77758C59.1065 7.68688 58.9695 7.5735 58.8554 7.41478C58.7412 7.25605 58.6727 7.07465 58.6271 6.89325C58.5814 6.68918 58.5586 6.50778 58.5586 6.3037C58.5586 6.09963 58.5814 5.80485 58.6499 5.60078C58.7184 5.3967 58.7869 5.23798 58.9239 5.10193C59.038 4.96588 59.1978 4.8525 59.3805 4.7618C59.5631 4.6711 59.7914 4.5804 60.0425 4.51238L60.8873 4.28563C61.1155 4.2176 61.2754 4.14958 61.3667 4.05888C61.458 3.96818 61.5037 3.80945 61.5037 3.62805C61.5037 3.44665 61.458 3.24258 61.3438 3.10653C61.2297 2.99315 61.0471 2.92513 60.7959 2.92513C60.5448 2.92513 60.385 2.99315 60.2708 3.1292C60.1567 3.26525 60.0882 3.44665 60.0882 3.6734V3.83213H58.7412V3.69608L58.6727 3.65073Z" fill="#1E3A6F"/>
<path d="M65.7276 0.385498V2.04077H66.5951V3.03847H65.7276V6.14495C65.7276 6.3717 65.7504 6.53042 65.8417 6.62112C65.9102 6.71182 66.0472 6.75717 66.2755 6.75717C66.5038 6.75717 66.3896 6.75717 66.4581 6.75717C66.5266 6.75717 66.5723 6.75717 66.6179 6.75717V7.77754C66.4581 7.77754 66.2983 7.77754 66.1385 7.77754C65.9787 7.77754 65.8189 7.77754 65.6362 7.77754C65.3395 7.77754 65.1112 7.77754 64.9285 7.70952C64.7459 7.66417 64.6089 7.59615 64.4948 7.48277C64.4034 7.3694 64.3349 7.21067 64.2893 7.0066C64.2436 6.80252 64.2436 6.57577 64.2436 6.281V2.99312H63.4902V1.99542H64.2436V0.385498H65.7504H65.7276Z" fill="#1E3A6F"/>
<path d="M67.1885 7.77761H68.6953V2.04084H67.1885V7.80029V7.77761ZM67.1885 1.31524H68.6953V0.0681152H67.1885V1.33791V1.31524Z" fill="#1E3A6F"/>
<path d="M72.5309 3.69611C72.5309 3.56006 72.4852 3.44668 72.4396 3.33331C72.3939 3.21993 72.3254 3.12923 72.2341 3.06121C72.1428 2.99318 72.0286 2.97051 71.8916 2.97051C71.7547 2.97051 71.5492 3.01586 71.435 3.08389C71.3209 3.17458 71.2296 3.28796 71.1839 3.44668C71.1154 3.60541 71.0926 3.80948 71.0698 4.05891C71.0698 4.30833 71.0469 4.60311 71.0469 4.92056C71.0469 5.23801 71.0469 5.57813 71.0698 5.82756C71.0698 6.07698 71.1382 6.28106 71.1839 6.46246C71.2524 6.62118 71.3209 6.75723 71.435 6.82526C71.5492 6.89328 71.6862 6.93863 71.846 6.93863C72.0971 6.93863 72.2797 6.82526 72.3939 6.62118C72.508 6.41711 72.5765 6.05431 72.5765 5.60081H74.0148C74.0148 6.34908 73.8322 6.93863 73.4897 7.32411C73.1473 7.70958 72.5765 7.91366 71.7775 7.91366C70.9784 7.91366 71.0698 7.86831 70.7958 7.77761C70.5218 7.68691 70.2935 7.52818 70.1109 7.30143C69.9283 7.07468 69.7913 6.75723 69.7 6.37176C69.6086 5.98628 69.563 5.51011 69.563 4.92056C69.563 4.33101 69.6315 3.83216 69.7456 3.44668C69.8598 3.06121 70.0196 2.74376 70.2251 2.51701C70.4305 2.29026 70.6817 2.13154 70.9784 2.04084C71.2752 1.95014 71.5949 1.90479 71.9373 1.90479C72.6222 1.90479 73.1473 2.10886 73.5126 2.49434C73.855 2.90248 74.0377 3.44669 74.0377 4.12693H72.5994C72.5994 3.99088 72.5994 3.85483 72.5765 3.71878" fill="#1E3A6F"/>
<path d="M81.7542 0.158691V1.40582H78.9918V3.19714H81.5944V4.46694H78.9918V7.77749H77.4165V0.158691H81.7542Z" fill="#1E3A6F"/>
<path d="M82.2793 7.77761H83.7861V2.04084H82.2793V7.80029V7.77761ZM82.2793 1.31524H83.7861V0.0681152H82.2793V1.33791V1.31524Z" fill="#1E3A6F"/>
<path d="M86.2513 2.04084V2.81178C86.4111 2.53969 86.5937 2.31294 86.7992 2.15421C87.0047 1.99549 87.2786 1.90479 87.5982 1.90479C87.9179 1.90479 87.6896 1.90479 87.7352 1.90479C87.7809 1.90479 87.8265 1.90479 87.8722 1.90479V3.31063C87.7809 3.31063 87.7124 3.31063 87.6439 3.31063C87.5754 3.31063 87.4841 3.31063 87.4156 3.31063C87.2786 3.31063 87.1645 3.31063 87.0275 3.35598C86.8905 3.40133 86.7764 3.44668 86.6622 3.53738C86.5481 3.62808 86.4567 3.71878 86.4111 3.85483C86.3426 3.99088 86.3198 4.14961 86.3198 4.33101V7.77761H84.813V2.04084H86.2513Z" fill="#1E3A6F"/>
<path d="M91.2058 3.6734C91.2058 3.51468 91.1373 3.35595 91.0917 3.24258C91.046 3.1292 90.9547 3.0385 90.8634 2.97048C90.772 2.90245 90.6351 2.87978 90.4981 2.87978C90.3611 2.87978 90.2241 2.90245 90.1328 2.97048C90.0415 3.0385 89.9502 3.1292 89.9045 3.24258C89.836 3.35595 89.8132 3.46933 89.7904 3.60538C89.7675 3.74143 89.7447 3.87748 89.7447 4.01353V4.24028H91.2743C91.2743 4.01353 91.2743 3.83213 91.2286 3.65073M89.7219 5.60078C89.7219 5.78218 89.7219 5.9409 89.7675 6.09963C89.7904 6.25835 89.836 6.3944 89.8817 6.53045C89.9502 6.64383 90.0187 6.7572 90.11 6.82523C90.2013 6.89325 90.3154 6.9386 90.4524 6.9386C90.7036 6.9386 90.8862 6.8479 91.0003 6.6665C91.1145 6.4851 91.2058 6.213 91.2286 5.8502H92.5756C92.5528 6.53045 92.3701 7.0293 92.0277 7.36943C91.6852 7.70955 91.1602 7.89095 90.4524 7.89095C89.7447 7.89095 89.4936 7.80025 89.1739 7.61885C88.8772 7.43745 88.6489 7.2107 88.4891 6.91593C88.3521 6.62115 88.2607 6.3037 88.2151 5.9409C88.1923 5.5781 88.1694 5.2153 88.1694 4.8525C88.1694 4.4897 88.1923 4.10423 88.2608 3.74143C88.3064 3.37863 88.4206 3.06118 88.5804 2.78908C88.7402 2.51698 88.9685 2.29023 89.2881 2.1315C89.5849 1.97278 89.9958 1.88208 90.4981 1.88208C91.0003 1.88208 91.2971 1.9501 91.5711 2.08615C91.8451 2.2222 92.0734 2.42628 92.2332 2.6757C92.393 2.92513 92.5071 3.24258 92.5528 3.60538C92.6213 3.96818 92.6441 4.37633 92.6441 4.80715V5.14728H89.6762V5.60078H89.7219Z" fill="#1E3A6F"/>
<path d="M97.3926 5.6234C97.3926 5.8048 97.3926 5.96352 97.4383 6.09957C97.4611 6.23562 97.5296 6.37167 97.5981 6.46237C97.6666 6.55307 97.7808 6.64377 97.9177 6.68912C98.0547 6.75715 98.2145 6.77982 98.42 6.77982C98.6255 6.77982 98.8766 6.7118 99.0592 6.55307C99.2419 6.39435 99.356 6.1676 99.356 5.85015C99.356 5.5327 99.3332 5.5327 99.2875 5.39665C99.2419 5.28327 99.1734 5.1699 99.0592 5.05652C98.9451 4.96582 98.8081 4.87512 98.6255 4.78442C98.4428 4.69372 98.2374 4.6257 97.9634 4.535C97.6209 4.42162 97.3242 4.28557 97.0502 4.14952C96.7991 4.01347 96.5936 3.85475 96.411 3.67335C96.2511 3.49195 96.1142 3.28787 96.0457 3.03845C95.9772 2.78902 95.9315 2.51692 95.9315 2.19947C95.9315 1.4512 96.137 0.884325 96.5708 0.49885C97.0045 0.1814 97.5981 0 98.3287 0C99.0592 0 98.9907 0.04535 99.2875 0.113375C99.5843 0.1814 99.8355 0.31745 100.041 0.476175C100.246 0.6349 100.429 0.86165 100.543 1.11107C100.657 1.3605 100.726 1.67795 100.726 2.04075V2.24482H99.219C99.219 1.88202 99.1506 1.60992 99.0136 1.40585C98.8766 1.20177 98.6711 1.11107 98.3515 1.11107C98.0319 1.11107 98.0319 1.13375 97.9177 1.1791C97.8036 1.22445 97.7123 1.29247 97.6438 1.38317C97.5753 1.47387 97.5296 1.56457 97.5068 1.67795C97.484 1.79132 97.4611 1.9047 97.4611 2.01807C97.4611 2.24482 97.5068 2.4489 97.6209 2.60762C97.7123 2.76635 97.9406 2.92507 98.283 3.06112L99.493 3.58265C99.7898 3.7187 100.041 3.85475 100.224 3.9908C100.406 4.12685 100.566 4.28557 100.68 4.4443C100.794 4.60302 100.863 4.78442 100.908 4.96582C100.954 5.14722 100.977 5.37397 100.977 5.60072C100.977 6.41702 100.749 6.9839 100.269 7.36937C99.7898 7.73217 99.1277 7.91357 98.283 7.91357C97.4383 7.91357 96.7762 7.73217 96.3881 7.3467C96 6.96122 95.8174 6.41702 95.8174 5.7141V5.39665H97.3926V5.6234Z" fill="#1E3A6F"/>
<path d="M103.374 6.32638C103.465 6.64383 103.693 6.80255 104.013 6.80255C104.333 6.80255 104.561 6.64383 104.652 6.32638C104.744 6.00893 104.789 5.53275 104.789 4.89785C104.789 4.26295 104.744 3.78678 104.652 3.46933C104.561 3.15188 104.333 2.99315 104.013 2.99315C103.693 2.99315 103.465 3.15188 103.374 3.46933C103.282 3.78678 103.237 4.26295 103.237 4.89785C103.237 5.53275 103.282 6.00893 103.374 6.32638ZM103.168 2.0408V2.65303C103.328 2.38093 103.511 2.17685 103.739 2.06348C103.944 1.95011 104.196 1.88208 104.515 1.88208C105.132 1.88208 105.588 2.10883 105.885 2.585C106.182 3.06118 106.319 3.83213 106.319 4.89785C106.319 5.96358 106.182 6.73453 105.885 7.18803C105.588 7.64153 105.132 7.89095 104.515 7.89095C103.899 7.89095 103.99 7.8456 103.785 7.73223C103.579 7.61885 103.397 7.46013 103.237 7.23338V9.61425H101.73V2.0408H103.168Z" fill="#1E3A6F"/>
<path d="M108.602 2.04084V2.81178C108.762 2.53969 108.944 2.31294 109.15 2.15421C109.355 1.99549 109.629 1.90479 109.949 1.90479C110.268 1.90479 110.04 1.90479 110.086 1.90479C110.131 1.90479 110.177 1.90479 110.223 1.90479V3.31063C110.131 3.31063 110.063 3.31063 109.994 3.31063C109.926 3.31063 109.835 3.31063 109.766 3.31063C109.629 3.31063 109.515 3.31063 109.378 3.35598C109.241 3.40133 109.127 3.44668 109.013 3.53738C108.899 3.62808 108.807 3.71878 108.762 3.85483C108.693 3.99088 108.67 4.14961 108.67 4.33101V7.77761H107.164V2.04084H108.602Z" fill="#1E3A6F"/>
<path d="M110.839 7.77761H112.346V2.04084H110.839V7.80029V7.77761ZM110.839 1.31524H112.346V0.0681152H110.839V1.33791V1.31524Z" fill="#1E3A6F"/>
<path d="M114.835 2.0408V2.72105C114.994 2.42628 115.2 2.2222 115.451 2.08615C115.702 1.9501 115.999 1.88208 116.318 1.88208C116.798 1.88208 117.163 2.01813 117.414 2.26755C117.665 2.51698 117.802 2.9478 117.802 3.51468V7.77758H116.296V3.80945C116.296 3.51468 116.25 3.3106 116.136 3.17455C116.045 3.06118 115.862 2.99315 115.656 2.99315C115.131 2.99315 114.857 3.3106 114.857 3.9455V7.7549H113.351V2.0408H114.789H114.835Z" fill="#1E3A6F"/>
<path d="M120.382 4.17216H120.405L121.912 2.04072H123.556L121.889 4.30821L123.807 7.77749H122.163L120.907 5.41929L120.382 6.09954V7.77749H118.875V0.158691H120.382V4.17216Z" fill="#1E3A6F"/>
<path d="M125.816 0.158691H124.309V7.80016H125.816V0.158691Z" fill="#1E3A6F"/>
<path d="M129.651 3.6734C129.651 3.51468 129.583 3.35595 129.537 3.24258C129.491 3.1292 129.4 3.0385 129.309 2.97048C129.217 2.90245 129.08 2.87978 128.943 2.87978C128.806 2.87978 128.669 2.90245 128.578 2.97048C128.487 3.0385 128.395 3.1292 128.35 3.24258C128.281 3.35595 128.258 3.46933 128.236 3.60538C128.213 3.74143 128.19 3.87748 128.19 4.01353V4.24028H129.72C129.72 4.01353 129.719 3.83213 129.674 3.65073M128.144 5.60078C128.144 5.78218 128.144 5.9409 128.19 6.09963C128.213 6.25835 128.258 6.3944 128.304 6.53045C128.373 6.64383 128.441 6.7572 128.532 6.82523C128.624 6.89325 128.738 6.9386 128.875 6.9386C129.126 6.9386 129.309 6.8479 129.423 6.6665C129.537 6.4851 129.628 6.213 129.651 5.8502H130.998C130.975 6.53045 130.793 7.0293 130.45 7.36943C130.108 7.70955 129.583 7.89095 128.875 7.89095C128.167 7.89095 127.916 7.80025 127.596 7.61885C127.3 7.43745 127.071 7.2107 126.911 6.91593C126.774 6.62115 126.683 6.3037 126.637 5.9409C126.615 5.5781 126.592 5.2153 126.592 4.8525C126.592 4.4897 126.615 4.10423 126.683 3.74143C126.729 3.37863 126.843 3.06118 127.003 2.78908C127.163 2.51698 127.391 2.29023 127.71 2.1315C128.007 1.97278 128.418 1.88208 128.92 1.88208C129.423 1.88208 129.72 1.9501 129.993 2.08615C130.267 2.2222 130.496 2.42628 130.656 2.6757C130.815 2.92513 130.929 3.24258 130.975 3.60538C131.044 3.96818 131.066 4.37633 131.066 4.80715V5.14728H128.099V5.60078H128.144Z" fill="#1E3A6F"/>
<path d="M133.349 2.04084V2.81178C133.509 2.53969 133.692 2.31294 133.897 2.15421C134.103 1.99549 134.377 1.90479 134.696 1.90479C135.016 1.90479 134.788 1.90479 134.833 1.90479C134.879 1.90479 134.925 1.90479 134.97 1.90479V3.31063C134.879 3.31063 134.811 3.31063 134.742 3.31063C134.674 3.31063 134.582 3.31063 134.514 3.31063C134.377 3.31063 134.263 3.31063 134.126 3.35598C133.989 3.40133 133.875 3.44668 133.76 3.53738C133.646 3.62808 133.555 3.71878 133.509 3.85483C133.441 3.99088 133.418 4.14961 133.418 4.33101V7.77761H131.911V2.04084H133.349Z" fill="#1E3A6F"/>
<path d="M141.021 4.92044L140.267 1.49652L139.514 4.92044H141.044H141.021ZM141.226 0.158691L143.281 7.80016H141.66L141.295 6.19024H139.217L138.852 7.80016H137.231L139.286 0.158691H141.226Z" fill="#1E3A6F"/>
<path d="M144.879 6.0996C144.879 6.34902 144.947 6.5531 145.084 6.71182C145.221 6.87055 145.404 6.93857 145.655 6.93857C145.906 6.93857 146.066 6.87055 146.203 6.75717C146.34 6.6438 146.408 6.4624 146.408 6.23565C146.408 6.0089 146.363 5.9182 146.248 5.80482C146.134 5.71412 146.02 5.62342 145.86 5.57807L144.81 5.1926C144.399 5.05655 144.08 4.85247 143.874 4.58037C143.669 4.33095 143.555 3.99082 143.555 3.58267C143.555 3.17452 143.6 3.12917 143.669 2.9251C143.737 2.72102 143.874 2.53962 144.057 2.3809C144.239 2.22217 144.445 2.1088 144.719 1.99543C144.993 1.90473 145.312 1.85938 145.701 1.85938C146.385 1.85938 146.888 1.99543 147.207 2.2902C147.527 2.58497 147.687 2.97045 147.687 3.49197V3.71872H146.34C146.34 3.42395 146.294 3.1972 146.203 3.06115C146.112 2.9251 145.929 2.85707 145.678 2.85707C145.427 2.85707 145.335 2.90242 145.175 3.0158C145.039 3.12917 144.97 3.26522 144.97 3.49197C144.97 3.71872 145.016 3.76407 145.107 3.87745C145.198 3.99082 145.358 4.08152 145.632 4.17222L146.545 4.467C147.025 4.62572 147.344 4.8298 147.55 5.07922C147.755 5.32865 147.847 5.66877 147.847 6.0996C147.847 6.53042 147.801 6.66647 147.687 6.89322C147.573 7.11997 147.436 7.30137 147.23 7.4601C147.048 7.61882 146.819 7.70952 146.545 7.77755C146.271 7.84557 145.997 7.86825 145.678 7.86825C145.358 7.86825 144.902 7.8229 144.628 7.75487C144.354 7.68685 144.125 7.5508 143.965 7.39207C143.806 7.23335 143.692 7.05195 143.623 6.8252C143.555 6.59845 143.532 6.34902 143.532 6.07692V5.87285H144.879V6.07692V6.0996Z" fill="#1E3A6F"/>
<path d="M149.696 6.0996C149.696 6.34902 149.765 6.5531 149.902 6.71182C150.039 6.87055 150.221 6.93857 150.472 6.93857C150.723 6.93857 150.883 6.87055 151.02 6.75717C151.157 6.6438 151.226 6.4624 151.226 6.23565C151.226 6.0089 151.18 5.9182 151.066 5.80482C150.952 5.71412 150.838 5.62342 150.678 5.57807L149.628 5.1926C149.217 5.05655 148.897 4.85247 148.692 4.58037C148.486 4.33095 148.372 3.99082 148.372 3.58267C148.372 3.17452 148.418 3.12917 148.486 2.9251C148.555 2.72102 148.692 2.53962 148.874 2.3809C149.057 2.22217 149.262 2.1088 149.536 1.99543C149.81 1.90473 150.13 1.85938 150.518 1.85938C151.203 1.85938 151.705 1.99543 152.025 2.2902C152.344 2.58497 152.504 2.97045 152.504 3.49197V3.71872H151.157C151.157 3.42395 151.112 3.1972 151.02 3.06115C150.929 2.9251 150.746 2.85707 150.495 2.85707C150.244 2.85707 150.153 2.90242 149.993 3.0158C149.856 3.12917 149.787 3.26522 149.787 3.49197C149.787 3.71872 149.833 3.76407 149.924 3.87745C150.016 3.99082 150.176 4.08152 150.449 4.17222L151.363 4.467C151.842 4.62572 152.162 4.8298 152.367 5.07922C152.573 5.32865 152.664 5.66877 152.664 6.0996C152.664 6.53042 152.618 6.66647 152.504 6.89322C152.39 7.11997 152.253 7.30137 152.048 7.4601C151.865 7.61882 151.637 7.70952 151.363 7.77755C151.089 7.84557 150.815 7.86825 150.495 7.86825C150.176 7.86825 149.719 7.8229 149.445 7.75487C149.171 7.68685 148.943 7.5508 148.783 7.39207C148.623 7.23335 148.509 7.05195 148.44 6.8252C148.372 6.59845 148.349 6.34902 148.349 6.07692V5.87285H149.696V6.07692V6.0996Z" fill="#1E3A6F"/>
<path d="M154.764 5.71415C154.764 5.96358 154.81 6.16765 154.878 6.34905C154.924 6.53045 155.015 6.6665 155.129 6.7572C155.243 6.8479 155.38 6.91593 155.563 6.91593C155.86 6.91593 156.088 6.7572 156.202 6.43975C156.316 6.1223 156.385 5.60078 156.385 4.89785C156.385 4.19493 156.316 3.65073 156.202 3.35595C156.088 3.0385 155.883 2.87978 155.563 2.87978C155.243 2.87978 155.243 2.92513 155.129 3.0385C155.015 3.1292 154.947 3.28793 154.878 3.44665C154.832 3.62805 154.787 3.83213 154.764 4.08155C154.764 4.33098 154.764 4.60308 154.764 4.89785C154.764 5.19263 154.764 5.46473 154.764 5.71415ZM153.349 3.60538C153.417 3.2199 153.554 2.90245 153.737 2.65303C153.919 2.4036 154.148 2.19953 154.444 2.08615C154.741 1.9501 155.106 1.88208 155.517 1.88208C155.974 1.88208 156.339 1.92743 156.636 2.06348C156.933 2.17686 157.161 2.38093 157.344 2.63035C157.526 2.87978 157.641 3.19723 157.709 3.5827C157.778 3.96818 157.823 4.399 157.823 4.92053C157.823 5.44205 157.778 5.8502 157.709 6.23568C157.641 6.62115 157.504 6.9386 157.321 7.18803C157.138 7.43745 156.91 7.61885 156.613 7.7549C156.316 7.86828 155.951 7.9363 155.54 7.9363C155.084 7.9363 154.718 7.89095 154.422 7.77758C154.125 7.6642 153.896 7.4828 153.714 7.2107C153.531 6.96128 153.417 6.64383 153.349 6.25835C153.28 5.87288 153.234 5.44205 153.234 4.9432C153.234 4.44435 153.28 4.01353 153.349 3.62805" fill="#1E3A6F"/>
<path d="M161.43 3.69611C161.43 3.56006 161.385 3.44668 161.339 3.33331C161.293 3.21993 161.225 3.12923 161.134 3.06121C161.042 2.99318 160.928 2.97051 160.791 2.97051C160.654 2.97051 160.472 3.01586 160.357 3.08389C160.243 3.17458 160.152 3.28796 160.106 3.44668C160.038 3.60541 160.015 3.80948 159.992 4.05891C159.992 4.30833 159.969 4.60311 159.969 4.92056C159.969 5.23801 159.969 5.57813 159.992 5.82756C159.992 6.07698 160.061 6.28106 160.106 6.46246C160.175 6.62118 160.243 6.75723 160.357 6.82526C160.472 6.89328 160.609 6.93863 160.768 6.93863C161.019 6.93863 161.202 6.82526 161.316 6.62118C161.43 6.41711 161.499 6.05431 161.499 5.60081H162.937C162.937 6.34908 162.755 6.93863 162.412 7.32411C162.07 7.70958 161.499 7.91366 160.7 7.91366C159.901 7.91366 159.992 7.86831 159.718 7.77761C159.444 7.68691 159.216 7.52818 159.033 7.30143C158.851 7.07468 158.714 6.75723 158.622 6.37176C158.531 5.98628 158.485 5.51011 158.485 4.92056C158.485 4.33101 158.554 3.83216 158.668 3.44668C158.782 3.06121 158.942 2.74376 159.147 2.51701C159.353 2.29026 159.604 2.13154 159.901 2.04084C160.198 1.95014 160.517 1.90479 160.86 1.90479C161.545 1.90479 162.07 2.10886 162.435 2.49434C162.777 2.90248 162.96 3.44669 162.96 4.12693H161.522C161.522 3.99088 161.522 3.85483 161.499 3.71878" fill="#1E3A6F"/>
<path d="M163.736 7.77761H165.243V2.04084H163.736V7.80029V7.77761ZM163.736 1.31524H165.243V0.0681152H163.736V1.33791V1.31524Z" fill="#1E3A6F"/>
<path d="M168.69 5.10193C168.576 5.14728 168.462 5.19263 168.371 5.2153C168.074 5.28333 167.846 5.3967 167.709 5.53275C167.572 5.69148 167.503 5.89555 167.503 6.14498C167.503 6.3944 167.549 6.55313 167.64 6.71185C167.732 6.87058 167.869 6.9386 168.074 6.9386C168.279 6.9386 168.279 6.9386 168.394 6.89325C168.508 6.87058 168.599 6.80255 168.69 6.73453C168.782 6.6665 168.85 6.5758 168.919 6.46243C168.987 6.34905 169.01 6.213 169.01 6.05428V4.92053C168.919 4.98855 168.805 5.05658 168.69 5.10193ZM166.27 3.65073C166.27 3.3106 166.316 3.0385 166.43 2.81175C166.544 2.585 166.681 2.4036 166.864 2.26755C167.047 2.1315 167.275 2.01813 167.526 1.97278C167.777 1.90475 168.051 1.88208 168.325 1.88208C168.782 1.88208 169.147 1.92743 169.421 2.01813C169.695 2.10883 169.9 2.2222 170.06 2.38093C170.22 2.53965 170.311 2.72105 170.38 2.9478C170.425 3.17455 170.471 3.4013 170.471 3.65073V6.6665C170.471 6.9386 170.471 7.14268 170.517 7.3014C170.54 7.46013 170.585 7.61885 170.654 7.77758H169.215C169.17 7.68688 169.124 7.59618 169.101 7.4828C169.078 7.36943 169.056 7.27873 169.033 7.18803C168.85 7.4828 168.668 7.68688 168.439 7.77758C168.211 7.86828 167.914 7.91363 167.549 7.91363C167.184 7.91363 167.069 7.86828 166.887 7.77758C166.704 7.68688 166.567 7.5735 166.453 7.41478C166.339 7.25605 166.27 7.07465 166.225 6.89325C166.179 6.68918 166.156 6.50778 166.156 6.3037C166.156 6.09963 166.179 5.80485 166.248 5.60078C166.316 5.3967 166.385 5.23798 166.522 5.10193C166.636 4.96588 166.795 4.8525 166.978 4.7618C167.161 4.6711 167.389 4.5804 167.64 4.51238L168.485 4.28563C168.713 4.2176 168.873 4.14958 168.964 4.05888C169.056 3.96818 169.101 3.80945 169.101 3.62805C169.101 3.44665 169.056 3.24258 168.942 3.10653C168.827 2.99315 168.668 2.92513 168.394 2.92513C168.12 2.92513 167.983 2.99315 167.868 3.1292C167.754 3.26525 167.686 3.44665 167.686 3.6734V3.83213H166.339V3.69608L166.27 3.65073Z" fill="#1E3A6F"/>
<path d="M173.348 0.385498V2.04077H174.215V3.03847H173.348V6.14495C173.348 6.3717 173.371 6.53042 173.462 6.62112C173.53 6.71182 173.667 6.75717 173.896 6.75717C174.124 6.75717 174.01 6.75717 174.078 6.75717C174.147 6.75717 174.192 6.75717 174.238 6.75717V7.77754C174.078 7.77754 173.918 7.77754 173.759 7.77754C173.599 7.77754 173.439 7.77754 173.256 7.77754C172.96 7.77754 172.731 7.77754 172.549 7.70952C172.366 7.66417 172.229 7.59615 172.115 7.48277C172.024 7.3694 171.955 7.21067 171.909 7.0066C171.864 6.80252 171.864 6.57577 171.864 6.281V2.99312H171.11V1.99542H171.864V0.385498H173.371H173.348Z" fill="#1E3A6F"/>
<path d="M174.786 7.77761H176.293V2.04084H174.786V7.80029V7.77761ZM174.786 1.31524H176.293V0.0681152H174.786V1.33791V1.31524Z" fill="#1E3A6F"/>
<path d="M178.667 5.71415C178.667 5.96358 178.713 6.16765 178.781 6.34905C178.827 6.53045 178.918 6.6665 179.032 6.7572C179.146 6.8479 179.283 6.91593 179.466 6.91593C179.763 6.91593 179.991 6.7572 180.105 6.43975C180.219 6.1223 180.288 5.60078 180.288 4.89785C180.288 4.19493 180.219 3.65073 180.105 3.35595C179.991 3.0385 179.786 2.87978 179.466 2.87978C179.146 2.87978 179.146 2.92513 179.032 3.0385C178.918 3.1292 178.85 3.28793 178.781 3.44665C178.735 3.62805 178.69 3.83213 178.667 4.08155C178.667 4.33098 178.667 4.60308 178.667 4.89785C178.667 5.19263 178.667 5.46473 178.667 5.71415ZM177.274 3.60538C177.343 3.2199 177.48 2.90245 177.662 2.65303C177.845 2.4036 178.073 2.19953 178.37 2.08615C178.667 1.9501 179.032 1.88208 179.443 1.88208C179.9 1.88208 180.265 1.92743 180.562 2.06348C180.859 2.17686 181.087 2.38093 181.27 2.63035C181.452 2.87978 181.566 3.19723 181.635 3.5827C181.703 3.96818 181.749 4.399 181.749 4.92053C181.749 5.44205 181.703 5.8502 181.635 6.23568C181.566 6.62115 181.429 6.9386 181.247 7.18803C181.064 7.43745 180.836 7.61885 180.539 7.7549C180.242 7.86828 179.877 7.9363 179.466 7.9363C179.009 7.9363 178.644 7.89095 178.347 7.77758C178.051 7.6642 177.822 7.4828 177.64 7.2107C177.457 6.96128 177.343 6.64383 177.274 6.25835C177.206 5.87288 177.16 5.44205 177.16 4.9432C177.16 4.44435 177.206 4.01353 177.274 3.62805" fill="#1E3A6F"/>
<path d="M183.986 2.0408V2.72105C184.146 2.42628 184.352 2.2222 184.603 2.08615C184.854 1.9501 185.151 1.88208 185.47 1.88208C185.95 1.88208 186.315 2.01813 186.566 2.26755C186.817 2.51698 186.954 2.9478 186.954 3.51468V7.77758H185.447V3.80945C185.447 3.51468 185.402 3.3106 185.288 3.17455C185.196 3.06118 185.014 2.99315 184.808 2.99315C184.283 2.99315 184.009 3.3106 184.009 3.9455V7.7549H182.502V2.0408H183.941H183.986Z" fill="#1E3A6F"/>
</g>
<defs>
<clipPath id="clip0_2453_319">
<rect width="187" height="69" fill="white"/>
</clipPath>
</defs>
</svg>
