<?xml version="1.0" encoding="UTF-8"?>
<svg id="Layer_1" data-name="Layer 1" xmlns="http://www.w3.org/2000/svg" xmlns:xlink="http://www.w3.org/1999/xlink" version="1.1" viewBox="0 0 60 17">
  <defs>
    <style>
      .cls-1 {
        clip-path: url(#clippath);
      }

      .cls-2 {
        fill: none;
      }

      .cls-2, .cls-3, .cls-4 {
        stroke-width: 0px;
      }

      .cls-3 {
        fill: #e63329;
      }

      .cls-4 {
        fill: #fff;
      }
    </style>
    <clipPath id="clippath">
      <rect class="cls-2" width="60" height="17"/>
    </clipPath>
  </defs>
  <g class="cls-1">
    <g>
      <path class="cls-4" d="M6,6.2c-2.9,0-4,2.3-4,4.5s1.2,4.5,4.1,4.5,3.9-2.3,3.9-4.6-1.3-4.4-4-4.4ZM0,.2h2.1v6.2h0c.7-1.3,2.4-1.9,4.2-1.9,4,0,6,2.9,6,6.3s-2,6.2-6,6.2-3.3-.5-4.2-1.9h0v1.6H0V.2Z"/>
      <path class="cls-4" d="M22.9,10.5c-.8.6-2.4.6-3.9.8-1.4.2-2.6.7-2.6,2.2s1.2,1.8,2.5,1.8c2.8,0,4-1.6,4-2.7v-2h0ZM26.4,16.7c-.4.2-.9.3-1.5.3-1.1,0-1.8-.6-1.8-1.9-1.2,1.3-2.8,1.9-4.6,1.9s-4.3-1-4.3-3.4,2.2-3.3,4.4-3.7c2.4-.4,4.4-.3,4.4-1.8s-1.5-2-2.9-2-3.2.5-3.3,2.3h-2.1c.1-3,2.6-4,5.5-4s4.9.5,4.9,3.3v6.2c0,.9,0,1.3.7,1.3s.4,0,.7-.1v1.5h0Z"/>
      <path class="cls-3" d="M29.3,6.5h-2.2v-1.7h2.2v-1.8c0-1.9,1.3-3,3.6-3s1,0,1.4.2v1.7c-.4-.1-.8-.2-1.2-.2-1,0-1.6.3-1.6,1.3v1.7h2.5v1.7h-2.5v10.2h-2.1V6.5h0Z"/>
      <path class="cls-4" d="M37.2,13c0,1.8,1.7,2.3,3.5,2.3s3.2-.3,3.2-1.8-2.1-1.8-4.3-2.2c-2.1-.4-4.3-1.1-4.3-3.4s2.6-3.4,4.9-3.4,5.2.8,5.3,3.8h-2.1c-.2-1.5-1.6-2-3-2s-2.8.3-2.8,1.5,2.3,1.6,4.3,2.1c2.1.4,4.3,1.1,4.3,3.4s-2.9,3.8-5.5,3.8-5.4-1.1-5.5-4.1h2.1Z"/>
      <path class="cls-4" d="M56.5,10.5c-.8.6-2.4.6-3.9.8-1.4.2-2.6.7-2.6,2.2s1.2,1.8,2.5,1.8c2.8,0,4-1.6,4-2.7v-2h0ZM60,16.7c-.4.2-.9.3-1.5.3-1.1,0-1.8-.6-1.8-1.9-1.2,1.3-2.8,1.9-4.6,1.9s-4.3-1-4.3-3.4,2.2-3.3,4.4-3.7c2.4-.4,4.4-.3,4.4-1.8s-1.5-2-2.9-2-3.2.5-3.3,2.3h-2.1c.1-3,2.6-4,5.5-4s4.9.5,4.9,3.3v6.2c0,.9,0,1.3.7,1.3s.4,0,.7-.1v1.5h0Z"/>
    </g>
  </g>
</svg>