<svg width="23" height="26" viewBox="0 0 23 26" fill="none" xmlns="http://www.w3.org/2000/svg">
<g clip-path="url(#clip0_2453_1716)">
<path d="M9.87187 10.7504C9.57612 10.9481 9.3222 11.2022 9.12463 11.498C8.92705 11.7939 8.78968 12.1257 8.72036 12.4747C8.58037 13.1794 8.72606 13.9109 9.12539 14.5082C9.52472 15.1055 10.145 15.5197 10.8497 15.6597C11.5544 15.7997 12.2859 15.654 12.8832 15.2547C13.4805 14.8554 13.8947 14.2351 14.0347 13.5304C14.1747 12.8257 14.029 12.0942 13.6297 11.4969C13.2304 10.8996 12.6101 10.4854 11.9054 10.3454C11.2007 10.2054 10.4692 10.3511 9.87187 10.7504ZM17.098 7.27695C16.834 7.01289 16.5141 6.80469 16.1637 6.66758C15.2445 6.30703 13.2387 6.32227 11.9437 6.3375C11.7355 6.3375 11.5426 6.34258 11.375 6.34258C11.2074 6.34258 11.0094 6.34258 10.7961 6.3375C9.50117 6.32227 7.50547 6.30195 6.58633 6.66758C6.23594 6.80469 5.92109 7.01289 5.65195 7.27695C5.38281 7.54102 5.17969 7.86094 5.04258 8.21133C4.68203 9.13047 4.70234 11.1414 4.7125 12.4363C4.7125 12.6445 4.71758 12.8375 4.71758 13C4.71758 13.1625 4.71758 13.3555 4.7125 13.5637C4.70234 14.8586 4.68203 16.8695 5.04258 17.7887C5.17969 18.1391 5.38789 18.4539 5.65195 18.723C5.91602 18.9922 6.23594 19.1953 6.58633 19.3324C7.50547 19.693 9.51133 19.6777 10.8063 19.6625C11.0145 19.6625 11.2074 19.6574 11.375 19.6574C11.5426 19.6574 11.7406 19.6574 11.9539 19.6625C13.2488 19.6777 15.2445 19.698 16.1637 19.3324C16.5141 19.1953 16.8289 18.9871 17.098 18.723C17.3672 18.459 17.5703 18.1391 17.7074 17.7887C18.073 16.8746 18.0527 14.8738 18.0375 13.5738C18.0375 13.3605 18.0324 13.1625 18.0324 12.9949C18.0324 12.8273 18.0324 12.6344 18.0375 12.416C18.0527 11.1211 18.073 9.12031 17.7074 8.20117C17.5703 7.85078 17.3621 7.53594 17.098 7.2668V7.27695ZM13.6906 9.53672C14.6091 10.1509 15.2461 11.1047 15.4613 12.1885C15.6765 13.2722 15.4524 14.3971 14.8383 15.3156C14.5342 15.7704 14.1435 16.1609 13.6885 16.4647C13.2335 16.7685 12.7231 16.9797 12.1865 17.0863C11.1028 17.3015 9.97789 17.0774 9.05937 16.4633C8.14086 15.8498 7.50366 14.8966 7.28795 13.8133C7.07225 12.73 7.29571 11.6054 7.90918 10.6869C8.52265 9.76839 9.47587 9.1312 10.5592 8.91549C11.6424 8.69979 12.767 8.92325 13.6855 9.53672H13.6906ZM15.1734 9.4707C15.016 9.36406 14.8891 9.21172 14.8129 9.03398C14.7367 8.85625 14.7215 8.66328 14.757 8.47031C14.7926 8.27734 14.8891 8.10977 15.0211 7.97266C15.1531 7.83555 15.3309 7.74414 15.5188 7.70859C15.7066 7.67305 15.9047 7.68828 16.0824 7.76445C16.2602 7.84062 16.4125 7.9625 16.5191 8.11992C16.6258 8.27734 16.6816 8.46523 16.6816 8.6582C16.6816 8.78516 16.6562 8.91211 16.6105 9.02891C16.5648 9.1457 16.4887 9.25234 16.4023 9.34375C16.316 9.43516 16.2043 9.50625 16.0875 9.55703C15.9707 9.60781 15.8438 9.6332 15.7168 9.6332C15.5238 9.6332 15.3359 9.57734 15.1785 9.4707H15.1734ZM22.75 4.875C22.75 3.08242 21.2926 1.625 19.5 1.625H3.25C1.45742 1.625 0 3.08242 0 4.875V21.125C0 22.9176 1.45742 24.375 3.25 24.375H19.5C21.2926 24.375 22.75 22.9176 22.75 21.125V4.875ZM18.1289 19.7539C17.1793 20.7035 16.0266 21.0031 14.7266 21.0691C13.3859 21.1453 9.36406 21.1453 8.02344 21.0691C6.72344 21.0031 5.5707 20.7035 4.62109 19.7539C3.67148 18.8043 3.37187 17.6516 3.31094 16.3516C3.23477 15.0109 3.23477 10.9891 3.31094 9.64844C3.37695 8.34844 3.67148 7.1957 4.62109 6.24609C5.5707 5.29648 6.72852 4.99687 8.02344 4.93594C9.36406 4.85977 13.3859 4.85977 14.7266 4.93594C16.0266 5.00195 17.1793 5.29648 18.1289 6.24609C19.0785 7.1957 19.3781 8.34844 19.4391 9.64844C19.5152 10.984 19.5152 15.0008 19.4391 16.3465C19.373 17.6465 19.0785 18.7992 18.1289 19.7488V19.7539Z" fill="white"/>
</g>
<defs>
<clipPath id="clip0_2453_1716">
<rect width="22.75" height="26" fill="white"/>
</clipPath>
</defs>
</svg>
