<svg width="23" height="26" viewBox="0 0 23 26" fill="none" xmlns="http://www.w3.org/2000/svg">
<g clip-path="url(#clip0_2453_1714)">
<path d="M3.25 1.625C1.45742 1.625 0 3.08242 0 4.875V21.125C0 22.9176 1.45742 24.375 3.25 24.375H19.5C21.2926 24.375 22.75 22.9176 22.75 21.125V4.875C22.75 3.08242 21.2926 1.625 19.5 1.625H3.25ZM18.3371 5.89062L13.066 11.9133L19.2664 20.1094H14.4117L10.6133 15.1379L6.26133 20.1094H3.84922L9.48594 13.6652L3.53945 5.89062H8.51602L11.9539 10.4355L15.925 5.89062H18.3371ZM16.4176 18.6672L7.78984 7.25664H6.35273L15.077 18.6672H16.4125H16.4176Z" fill="white"/>
</g>
<defs>
<clipPath id="clip0_2453_1714">
<rect width="22.75" height="26" fill="white"/>
</clipPath>
</defs>
</svg>
